<svg width="82" height="31" viewBox="0 0 82 31" fill="#fff" xmlns="http://www.w3.org/2000/svg">
<path d="M72.2703 0.0399947H61.5503V14.04H61.0003C57.7903 14.04 55.1902 17.09 55.1902 20.84H61.5603V30.13H67.5603V20.65H73.1003C73.1003 20.65 81.4203 19.65 81.4203 10.81C81.4203 0.179994 72.3003 0.00999451 72.3003 0.00999451L72.2703 0.0399947ZM71.4303 14.01H67.5303V7.28H71.5303C71.5303 7.28 74.2603 7.16999 74.4303 10.56C74.4852 10.9893 74.449 11.4253 74.324 11.8397C74.1991 12.2541 73.9882 12.6375 73.7051 12.9649C73.4221 13.2923 73.0732 13.5563 72.6812 13.7399C72.2893 13.9234 71.863 14.0222 71.4303 14.03" fill="#ED1C24"/>
<path d="M46.0003 16.19L59.6303 0H51.1703L41.3803 11.2V0H35.1003C31.8903 0 29.2903 3 29.2903 6.8H35.4103V30.16H41.4103V21.16L50.8703 30.16H60.0003L46.0003 16.19Z" fill="#ED1C24"/>
<path d="M3.39032 14.39C3.51032 12.44 5.03032 9.01001 8.39031 9.01001H8.60031V8.78001L8.58031 0.0200043H20.3203C22.0845 0.0654469 23.7742 0.740756 25.0838 1.92379C26.3934 3.10681 27.2364 4.71945 27.4603 6.47C27.5975 7.4998 27.5219 8.54681 27.2381 9.5462C26.9543 10.5456 26.4683 11.4761 25.8103 12.28C25.1552 12.9339 24.3744 13.4482 23.5151 13.792C22.6557 14.1357 21.7356 14.3017 20.8103 14.28L3.39032 14.39ZM14.1103 8.98001H19.0003C19.5661 8.98001 20.1089 8.75592 20.51 8.35675C20.911 7.95759 21.1376 7.41583 21.1403 6.85001V6.85001C21.1403 6.28244 20.9148 5.73812 20.5135 5.3368C20.1122 4.93547 19.5679 4.71001 19.0003 4.71001H14.0903L14.1103 8.98001Z" fill="#ED1C24"/>
<path d="M8.5803 30.14L8.6503 21.14H0.00031092C-0.0145884 19.7534 0.506501 18.4145 1.45486 17.4028C2.40323 16.3911 3.70561 15.7847 5.09031 15.71H8.3703H21.9603C25.5003 15.71 27.3303 16.98 28.5403 18.42C29.1406 19.1956 29.5791 20.0838 29.8299 21.032C30.0807 21.9802 30.1386 22.969 30.0003 23.94C29.8866 25.6159 29.1429 27.1868 27.9186 28.3369C26.6943 29.487 25.0801 30.1312 23.4003 30.14H8.5803ZM14.0903 25.57L22.0903 25.51C22.6641 25.5073 23.2135 25.2776 23.6183 24.8709C24.023 24.4642 24.2503 23.9138 24.2503 23.34V23.34C24.2476 22.7662 24.0179 22.2168 23.6112 21.812C23.2045 21.4072 22.6541 21.18 22.0803 21.18H14.0803L14.0903 25.57Z" fill="#ED1C24"/>
</svg>
