<svg id="Layer_1" data-name="Layer 1" xmlns="http://www.w3.org/2000/svg" viewBox="0 0 512 512"><defs><style>.cls-1{fill:#ed1c24;}</style></defs><path class="cls-1" d="M58.35,244.39c2-33.21,27.8-91.52,84.53-91.52h4l.72-4L146.52,0H346c60.25,0,115.89,50.26,121.49,109.76,3.8,40.42-7.24,72.93-28.14,98.13-13.62,16.42-43.18,33.16-84.34,34.66Zm182.24-92.06h83.46a36.24,36.24,0,0,0,36.24-36.24h0a36.25,36.25,0,0,0-36.24-36.24h-83.9Z"/><path class="cls-1" d="M146.52,512l1.12-152.33H.67c1.89-51.18,40-92.18,86.58-92.18H143l231-1c60.12,0,91.27,21.7,111.83,46.1,19.77,23.47,28.32,56,24.73,94.1C504.93,466.21,458.6,512,398.35,512Zm93.63-77.69L376,433.36a36.85,36.85,0,0,0,36.59-36.85h0a36.84,36.84,0,0,0-36.85-36.84H240.58Z"/></svg>